<?xml version="1.0" encoding="UTF-8"?>
<svg xmlns="http://www.w3.org/2000/svg" xmlns:xlink="http://www.w3.org/1999/xlink" width="200px" height="200px" viewBox="0 0 200 200" version="1.1">
<g id="surface1">
<path style=" stroke:none;fill-rule:evenodd;fill:rgb(81.176472%,62.352943%,18.82353%);fill-opacity:1;" d="M 47.65625 155.46875 L 43.75 155.46875 C 38.570312 155.46875 33.601562 157.515625 29.9375 161.1875 C 29.578125 161.546875 29.234375 161.921875 28.90625 162.296875 L 28.90625 31.25 C 28.90625 25.640625 31.132812 20.28125 35.085938 16.328125 C 38.484375 12.9375 42.921875 10.8125 47.65625 10.289062 Z M 52.34375 10.15625 L 159.375 10.15625 C 162.484375 10.15625 165.460938 11.375 167.664062 13.585938 C 169.859375 15.78125 171.09375 18.757812 171.09375 21.875 L 171.09375 155.46875 L 52.34375 155.46875 Z M 148.4375 20.304688 C 148.4375 19.007812 147.390625 17.960938 146.09375 17.960938 L 77.34375 17.960938 C 76.046875 17.960938 75 19.007812 75 20.304688 C 75 23.007812 73.929688 25.59375 72.023438 27.484375 C 70.125 29.398438 67.539062 30.46875 64.84375 30.46875 C 64.21875 30.46875 63.625 30.710938 63.1875 31.164062 C 62.75 31.59375 62.5 32.195312 62.5 32.8125 L 62.5 132.804688 C 62.5 133.421875 62.75 134.023438 63.1875 134.476562 C 63.625 134.90625 64.21875 135.148438 64.84375 135.148438 C 67.539062 135.148438 70.125 136.21875 72.023438 138.132812 C 73.929688 140.046875 75 142.617188 75 145.3125 C 75 146.609375 76.046875 147.65625 77.34375 147.65625 L 146.09375 147.65625 C 147.390625 147.65625 148.4375 146.609375 148.4375 145.3125 C 148.4375 142.609375 149.507812 140.046875 151.414062 138.132812 C 153.320312 136.21875 155.898438 135.148438 158.59375 135.148438 C 159.21875 135.148438 159.8125 134.90625 160.25 134.476562 C 160.6875 134.023438 160.9375 133.429688 160.9375 132.804688 L 160.9375 32.8125 C 160.9375 32.195312 160.6875 31.59375 160.25 31.164062 C 159.8125 30.710938 159.210938 30.46875 158.59375 30.46875 C 155.898438 30.46875 153.320312 29.398438 151.414062 27.484375 C 149.515625 25.59375 148.4375 23 148.4375 20.304688 Z M 143.9375 22.648438 C 144.429688 25.726562 145.875 28.570312 148.09375 30.804688 C 150.320312 33.039062 153.179688 34.476562 156.25 34.96875 L 156.25 130.648438 C 153.179688 131.132812 150.320312 132.578125 148.09375 134.8125 C 145.867188 137.046875 144.421875 139.890625 143.9375 142.96875 L 79.5 142.96875 C 79.007812 139.890625 77.5625 137.046875 75.335938 134.8125 C 73.109375 132.578125 70.25 131.140625 67.1875 130.648438 L 67.1875 34.96875 C 70.257812 34.484375 73.117188 33.039062 75.335938 30.804688 C 77.5625 28.570312 79.007812 25.726562 79.5 22.648438 Z M 113.335938 46.742188 C 112.429688 45.882812 111.007812 45.882812 110.101562 46.742188 L 100.929688 55.460938 L 86.71875 55.460938 C 85.421875 55.460938 84.375 56.507812 84.375 57.804688 L 84.375 72.109375 L 75.554688 81.28125 C 74.679688 82.203125 74.679688 83.625 75.554688 84.546875 L 84.375 93.71875 L 84.375 107.820312 C 84.375 109.117188 85.421875 110.164062 86.71875 110.164062 L 100.929688 110.164062 L 110.101562 118.882812 C 111.007812 119.742188 112.429688 119.742188 113.335938 118.882812 L 122.507812 110.164062 L 136.71875 110.164062 C 138.015625 110.164062 139.0625 109.117188 139.0625 107.820312 L 139.0625 93.71875 L 147.882812 84.546875 C 148.75 83.625 148.75 82.203125 147.882812 81.28125 L 139.0625 72.109375 L 139.0625 57.804688 C 139.0625 56.507812 138.015625 55.460938 136.71875 55.460938 L 122.507812 55.460938 Z M 111.71875 51.671875 L 119.953125 59.507812 C 120.390625 59.921875 120.96875 60.148438 121.570312 60.148438 L 134.375 60.148438 L 134.375 73.070312 C 134.375 73.671875 134.609375 74.25 135.03125 74.679688 L 142.945312 82.914062 L 135.03125 91.148438 C 134.609375 91.578125 134.375 92.164062 134.375 92.757812 L 134.375 105.46875 L 121.570312 105.46875 C 120.96875 105.46875 120.390625 105.695312 119.953125 106.109375 L 111.71875 113.945312 L 103.484375 106.109375 C 103.046875 105.695312 102.46875 105.46875 101.867188 105.46875 L 89.0625 105.46875 L 89.0625 92.757812 C 89.0625 92.15625 88.828125 91.578125 88.40625 91.148438 L 80.492188 82.914062 L 88.40625 74.679688 C 88.820312 74.25 89.0625 73.664062 89.0625 73.070312 L 89.0625 60.148438 L 101.867188 60.148438 C 102.46875 60.148438 103.046875 59.921875 103.484375 59.507812 Z M 111.71875 64.835938 C 101.796875 64.835938 93.75 72.898438 93.75 82.820312 C 93.75 92.742188 101.804688 100.78125 111.71875 100.78125 C 121.632812 100.78125 129.6875 92.734375 129.6875 82.820312 C 129.6875 72.898438 121.632812 64.835938 111.71875 64.835938 Z M 111.71875 69.523438 C 119.046875 69.523438 125 75.484375 125 82.820312 C 125 90.148438 119.046875 96.09375 111.71875 96.09375 C 104.390625 96.09375 98.4375 90.148438 98.4375 82.820312 C 98.4375 75.492188 104.390625 69.523438 111.71875 69.523438 Z M 28.90625 174.992188 C 28.90625 171.054688 30.46875 167.289062 33.25 164.492188 C 36.03125 161.71875 39.8125 160.164062 43.742188 160.164062 L 171.085938 160.164062 L 171.085938 181.257812 C 171.085938 186 167.242188 189.84375 162.492188 189.84375 L 43.75 189.84375 C 39.8125 189.84375 36.039062 188.289062 33.257812 185.492188 C 30.476562 182.71875 28.914062 178.929688 28.914062 174.992188 Z M 28.90625 174.992188 "/>
</g>
</svg>
